<svg width="192" height="110" viewBox="0 0 192 110" fill="none" xmlns="http://www.w3.org/2000/svg">
<path d="M57.579 6.68026C67.5887 6.66384 77.4267 9.27197 86.1056 14.2429C78.6583 20.2066 72.648 27.7594 68.5175 36.3451C64.3869 44.9309 62.2413 54.3308 62.2387 63.8526C62.2387 64.6994 62.2387 65.5462 62.2975 66.3865H68.787C68.7478 65.5462 68.7217 64.6994 68.7217 63.8526C68.7212 58.0626 69.6026 52.306 71.3358 46.7797C74.6134 52.202 78.6789 57.1103 83.4 61.3448C84.974 62.7542 86.2418 64.4701 87.1251 66.3865H96.5359C97.4192 64.4701 98.687 62.7542 100.261 61.3448C104.983 57.1133 109.047 52.2045 112.319 46.7797C114.052 52.306 114.933 58.0626 114.933 63.8526C114.933 64.6994 114.933 65.5462 114.867 66.3865H121.357C121.39 65.5462 121.416 64.6994 121.416 63.8526C121.413 54.3308 119.268 44.9309 115.137 36.3451C111.006 27.7594 104.996 20.2066 97.5489 14.2429C109.618 7.36043 123.781 5.06948 137.414 7.79414L138.963 1.52126C122.724 -1.79127 105.83 1.30014 91.8305 10.1456C77.8312 1.30014 60.9366 -1.79127 44.6979 1.52126L46.2795 7.79414C50.0001 7.05342 53.7849 6.68032 57.579 6.68026ZM103.489 29.5896C105.52 32.2933 106.617 35.5795 106.617 38.9566C106.617 42.3336 105.52 45.6198 103.489 48.3235C100.178 52.7117 96.2516 56.6033 91.8305 59.8792C87.4808 56.6487 83.6107 52.8219 80.3349 48.5124C78.2443 45.7625 77.1128 42.4068 77.1128 38.9566C77.1128 35.5063 78.2443 32.1506 80.3349 29.4007C83.6057 25.0754 87.4762 21.2352 91.8305 17.9949C96.2563 21.2805 100.183 25.1857 103.489 29.5896Z" fill="url(#paint0_linear_2326_1343)"/>
<path d="M50.3052 92.5854V91.3543H52.8148V95.8554H50.3052C50.2513 95.2479 50.0014 94.6743 49.5928 94.2204C49.4065 94.0375 49.1845 93.8946 48.9406 93.8004C48.6967 93.7063 48.436 93.663 48.1747 93.6732C47.7946 93.6643 47.423 93.7862 47.1225 94.0184C46.9865 94.1185 46.876 94.2491 46.7999 94.3996C46.7239 94.5501 46.6844 94.7163 46.6846 94.8848C46.6795 95.1767 46.7792 95.4608 46.9657 95.686C47.161 95.9222 47.4036 96.1152 47.678 96.2527C47.9656 96.409 48.4034 96.6175 48.9851 96.8715L49.5928 97.1256C50.7197 97.5657 51.7351 98.2485 52.5664 99.1253C53.2505 99.9186 53.6098 100.94 53.5728 101.985C53.6069 102.579 53.5203 103.173 53.3182 103.733C53.116 104.293 52.8025 104.806 52.3965 105.242C51.9741 105.638 51.4753 105.945 50.9305 106.143C50.3856 106.341 49.806 106.427 49.2269 106.395C48.6412 106.422 48.0581 106.303 47.5299 106.049C47.0017 105.796 46.545 105.415 46.201 104.942V106.245H43.6653V101.184H46.201C46.191 101.904 46.4208 102.607 46.8546 103.183C47.0566 103.411 47.307 103.59 47.5874 103.708C47.8678 103.826 48.1711 103.881 48.4753 103.867C48.6887 103.873 48.901 103.836 49.0989 103.756C49.2968 103.676 49.4761 103.557 49.6255 103.405C49.7779 103.26 49.8985 103.085 49.9795 102.891C50.0605 102.697 50.1002 102.488 50.0961 102.278C50.0925 102.049 50.0433 101.822 49.9513 101.612C49.8593 101.402 49.7264 101.212 49.5602 101.053C49.0252 100.567 48.4019 100.187 47.7238 99.933C46.5217 99.4657 45.4293 98.756 44.5149 97.8486C43.872 97.1479 43.5173 96.2316 43.5216 95.2821C43.5136 94.5562 43.6937 93.8405 44.0444 93.2042C44.3869 92.5928 44.888 92.0844 45.4952 91.7321C46.1077 91.3751 46.8051 91.1884 47.5146 91.1914C48.063 91.1824 48.6055 91.3053 49.0962 91.5497C49.5834 91.7831 50.0004 92.1403 50.3052 92.5854Z" fill="black"/>
<path d="M72.0743 98.7475C72.0969 100.069 71.7797 101.374 71.1528 102.539C70.5419 103.65 69.638 104.573 68.5387 105.209C67.3075 105.917 65.9256 106.323 64.5064 106.395C64.8293 106.477 65.1426 106.592 65.4409 106.74C65.9901 106.989 66.553 107.206 67.1271 107.391C67.6131 107.546 68.12 107.625 68.6302 107.626C68.885 107.626 69.0942 107.626 69.2837 107.626L68.3753 109.99C68.234 110.003 68.0918 110.003 67.9505 109.99C67.4581 109.995 66.9689 109.911 66.5062 109.743C66.0487 109.574 65.4606 109.32 64.7417 108.974C64.2632 108.732 63.7723 108.515 63.2712 108.323C62.8978 108.18 62.5015 108.105 62.1014 108.101C61.2753 108.117 60.4833 108.432 59.8729 108.987L58.9253 107.522C59.558 106.773 60.4627 106.304 61.4413 106.219C60.2909 105.942 59.2126 105.425 58.2783 104.701C57.4066 104.015 56.7065 103.136 56.2327 102.135C55.7478 101.095 55.5022 99.9596 55.5138 98.8127C55.487 97.4073 55.8536 96.0223 56.5725 94.8131C57.2571 93.6399 58.2639 92.6862 59.4742 92.0643C60.8186 91.4115 62.2989 91.0856 63.7941 91.1132C65.3016 91.082 66.7938 91.4197 68.14 92.0968C69.3516 92.7067 70.3629 93.6492 71.0548 94.8131C71.7432 96.0094 72.0953 97.3686 72.0743 98.7475ZM63.7941 103.705C64.5763 103.721 65.3442 103.494 65.9899 103.053C66.6221 102.603 67.1173 101.988 67.4211 101.275C67.7611 100.478 67.9302 99.6196 67.9178 98.754C67.9303 97.8892 67.7565 97.0318 67.4081 96.2397C67.1023 95.5294 66.5989 94.9214 65.9572 94.4874C65.315 94.05 64.5522 93.8223 63.7744 93.836C62.9976 93.8138 62.2343 94.0423 61.5982 94.4874C60.9717 94.9364 60.4793 95.5465 60.1735 96.2527C59.8352 97.0435 59.6608 97.8943 59.6608 98.754C59.6608 99.6137 59.8352 100.465 60.1735 101.255C60.488 101.973 60.9916 102.592 61.6309 103.047C62.2638 103.489 63.0213 103.719 63.7941 103.705Z" fill="black"/>
<path d="M78.5573 93.8817V100.832C78.5352 101.474 78.6123 102.115 78.786 102.734C78.8899 103.107 79.1211 103.432 79.4396 103.652C79.7726 103.83 80.1471 103.915 80.5244 103.9C80.8191 103.921 81.1143 103.867 81.3827 103.744C81.6511 103.621 81.8841 103.433 82.0602 103.197C82.4598 102.433 82.6321 101.572 82.5569 100.715V93.8817H81.1126V91.3543H87.0728V93.8817H85.2494V101.425C85.2494 103.162 84.8551 104.428 84.0666 105.222C83.2823 106.011 81.9622 106.408 80.1454 106.408C79.0727 106.452 78.0024 106.275 77.0019 105.887C76.2213 105.541 75.602 104.912 75.27 104.128C74.8511 103.054 74.6598 101.905 74.708 100.754V93.8817H72.9435V91.3543H80.067V93.8817H78.5573Z" fill="black"/>
<path d="M96.6535 93.8816L99.7709 103.705H101.555V106.232H94.2159V103.705H96.1307L95.4184 101.184H91.5429L90.7522 103.711H92.7128V106.238H86.1448V103.711H87.9877L90.8894 93.8882H88.9288V91.3608H98.6991V93.8882L96.6535 93.8816ZM93.5427 94.4809L92.2357 98.9755H94.8498L93.5427 94.4809Z" fill="black"/>
<path d="M115.841 95.4124C115.864 96.2233 115.636 97.0215 115.188 97.6988C114.689 98.3759 114.01 98.8996 113.227 99.21L115.632 103.705H117.593V106.232H113.018L109.652 99.7181H107.947V103.698H109.822V106.225H101.98V103.698H104.025V93.8817H101.98V91.3543H110.476C111.849 91.2741 113.211 91.6398 114.358 92.3965C114.837 92.7364 115.224 93.1903 115.483 93.717C115.742 94.2436 115.865 94.8264 115.841 95.4124ZM111.783 95.5818C111.805 95.3365 111.766 95.0896 111.67 94.8625C111.575 94.6355 111.425 94.4351 111.234 94.279C110.801 93.9757 110.278 93.8265 109.75 93.8556H107.986V97.308H109.41C110.992 97.3253 111.783 96.7499 111.783 95.5818Z" fill="black"/>
<path d="M128.624 96.0638V93.8817H123.997V97.2754H127.735V99.7833H123.997V103.692H128.624V101.49H131.487V106.219H118.298V103.692H120.128V93.8817H118.298V91.3543H131.46V96.0638H128.624Z" fill="black"/>
<path d="M139.826 92.5854V91.3543H142.348V95.8554H139.813C139.759 95.2479 139.509 94.6743 139.1 94.2204C138.914 94.0375 138.692 93.8946 138.448 93.8004C138.204 93.7063 137.943 93.663 137.682 93.6732C137.302 93.6643 136.93 93.7862 136.63 94.0184C136.494 94.1185 136.383 94.2491 136.307 94.3996C136.231 94.5501 136.192 94.7163 136.192 94.8848C136.187 95.1767 136.287 95.4608 136.473 95.686C136.668 95.9222 136.911 96.1152 137.185 96.2527C137.473 96.409 137.911 96.6175 138.492 96.8715L139.1 97.1256C140.227 97.5657 141.243 98.2485 142.074 99.1253C142.758 99.9186 143.117 100.94 143.08 101.985C143.115 102.579 143.027 103.175 142.824 103.734C142.621 104.294 142.306 104.807 141.897 105.242C141.479 105.644 140.983 105.957 140.439 106.161C139.895 106.365 139.315 106.456 138.734 106.427C138.149 106.454 137.565 106.336 137.037 106.082C136.509 105.828 136.052 105.448 135.708 104.975V106.278H133.199V101.184H135.735C135.725 101.904 135.954 102.607 136.388 103.183C136.59 103.411 136.841 103.59 137.121 103.708C137.401 103.826 137.705 103.881 138.009 103.867C138.222 103.873 138.435 103.836 138.632 103.756C138.83 103.676 139.01 103.557 139.159 103.405C139.312 103.26 139.432 103.085 139.513 102.891C139.594 102.697 139.634 102.488 139.63 102.278C139.626 102.049 139.577 101.822 139.485 101.612C139.393 101.402 139.26 101.212 139.094 101.053C138.559 100.567 137.935 100.187 137.257 99.933C136.055 99.4657 134.963 98.756 134.048 97.8486C133.406 97.1479 133.051 96.2316 133.055 95.2821C133.047 94.5562 133.227 93.8405 133.578 93.2042C133.921 92.5928 134.422 92.0844 135.029 91.7321C135.641 91.3751 136.339 91.1884 137.048 91.1914C137.597 91.1824 138.139 91.3053 138.63 91.5497C139.112 91.785 139.525 92.1421 139.826 92.5854Z" fill="black"/>
<path d="M14.7532 75.1672C14.783 76.0014 14.5549 76.8246 14.0996 77.5253C13.5931 78.2186 12.9029 78.7577 12.1064 79.0821L14.5832 83.7135H16.5765V86.319H11.8842L8.41392 79.6097H6.65592V83.7135H8.61651V86.319H0.532349V83.7135H2.64325V73.5909H0.532349V70.9853H9.30926C10.7241 70.9018 12.1279 71.2791 13.3089 72.0601C13.7863 72.4207 14.1677 72.8925 14.4195 73.4343C14.6714 73.976 14.7859 74.5711 14.7532 75.1672ZM10.564 75.3366C10.5811 75.0905 10.539 74.844 10.4412 74.6174C10.3435 74.3908 10.1929 74.1908 10.002 74.0338C9.55667 73.7197 9.0174 73.5658 8.47274 73.5974H6.65592V77.1605H8.12637C9.75583 77.1562 10.5684 76.5482 10.564 75.3366Z" fill="black"/>
<path d="M16.7399 78.6066C16.7061 77.1576 17.0772 75.7277 17.8117 74.4768C18.5355 73.2866 19.5822 72.3246 20.831 71.7019C22.2228 71.0211 23.7576 70.6816 25.3077 70.7118C26.8536 70.6809 28.3844 71.0205 29.7713 71.7019C31.0166 72.3222 32.0576 73.2852 32.771 74.4768C33.4737 75.7358 33.8426 77.1528 33.8426 78.5936C33.8426 80.0343 33.4737 81.4513 32.771 82.7103C32.0602 83.9064 31.0157 84.8705 29.7648 85.4853C28.3792 86.1639 26.8512 86.5034 25.3077 86.4754C23.7772 86.4989 22.2629 86.1595 20.8898 85.4853C19.6302 84.8658 18.5721 83.9038 17.8378 82.7103C17.0963 81.4707 16.7161 80.0496 16.7399 78.6066ZM29.5556 78.6066C29.5686 77.7327 29.3925 76.8662 29.0393 76.0662C28.7246 75.3363 28.2162 74.7058 27.5689 74.2423C26.9019 73.7952 26.1112 73.5674 25.3077 73.5909C24.506 73.5652 23.7167 73.7932 23.053 74.2423C22.4037 74.7054 21.8931 75.3359 21.576 76.0662C21.2229 76.8662 21.0468 77.7327 21.0597 78.6066C21.0485 79.5021 21.2267 80.3899 21.5826 81.2121C21.9013 81.9488 22.4167 82.5842 23.0726 83.0491C23.7251 83.4906 24.4996 83.7183 25.2881 83.7005C26.0932 83.7206 26.885 83.4932 27.5558 83.0491C28.2169 82.5913 28.7319 81.9536 29.0393 81.2121C29.3957 80.3833 29.5717 79.4886 29.5556 78.587V78.6066Z" fill="black"/>
<path d="M44.8743 73.5909L48.0897 83.7135H49.9261V86.319H42.3582V83.7135H44.3188L43.5869 81.1079H39.6069L38.79 83.7135H40.8421V86.319H34.0453V83.7135H35.9406L38.9338 73.5909H36.8817V70.9854H46.933V73.5909H44.8743ZM41.672 74.2423L40.2931 78.8737H42.966L41.672 74.2423Z" fill="black"/>
<path d="M62.853 72.1644V70.9854H65.4671V76.3789H62.853C62.0818 74.4334 60.7987 73.4606 59.0037 73.4606C58.1607 73.4441 57.3329 73.685 56.6313 74.1511C55.932 74.6212 55.3741 75.2719 55.0171 76.0336C54.626 76.8624 54.4293 77.769 54.442 78.6848C54.4294 79.5488 54.6149 80.4044 54.9845 81.1861C55.3254 81.9134 55.8529 82.538 56.5137 82.997C57.2686 83.5016 58.1731 83.7358 59.079 83.6613C59.9848 83.5867 60.8385 83.2078 61.5001 82.5866C62.2973 81.8151 62.8398 80.8199 63.0555 79.7335L66.0879 81.1666C64.9464 84.7231 62.4107 86.5014 58.4808 86.5014C56.9513 86.5382 55.4349 86.2122 54.0564 85.5504C52.8334 84.9418 51.819 83.9851 51.1417 82.8015C50.4399 81.5279 50.0882 80.0919 50.1222 78.6392C50.0999 77.2188 50.4634 75.8188 51.1744 74.5875C51.8637 73.3998 52.8675 72.4241 54.076 71.767C55.3478 71.0753 56.7773 70.723 58.226 70.7443C59.8857 70.6777 61.5183 71.1788 62.853 72.1644Z" fill="black"/>
<path d="M73.2441 73.5909V76.9195H77.4463V73.5909H75.8778V70.9854H83.2562V73.5909H81.3348V83.7135H83.2562V86.319H75.8778V83.7135H77.4463V79.5446H73.2441V83.7135H74.8518V86.319H67.4342V83.7135H69.3556V73.5909H67.4342V70.9854H74.8518V73.5909H73.2441Z" fill="black"/>
<path d="M95.2942 75.8382V73.5909H90.53V77.0823H94.3793V79.6879H90.53V83.707H95.2942V81.4466H98.2482V86.319H84.707V83.7135H86.5631V73.5909H84.707V70.9854H98.2743V75.8382H95.2942Z" fill="black"/>
<path d="M113.809 75.1672C113.839 76.0014 113.61 76.8246 113.155 77.5253C112.658 78.2139 111.979 78.7526 111.195 79.0821L113.671 83.7135H115.665V86.319H110.979L107.509 79.6097H105.751V83.7135H107.679V86.319H99.5879V83.7135H101.699V73.5909H99.5879V70.9853H108.365C109.78 70.9018 111.183 71.2791 112.364 72.0601C112.842 72.4207 113.223 72.8925 113.475 73.4343C113.727 73.976 113.841 74.5711 113.809 75.1672ZM109.62 75.3366C109.637 75.0905 109.595 74.844 109.497 74.6174C109.399 74.3908 109.248 74.1908 109.058 74.0338C108.612 73.7197 108.073 73.5658 107.528 73.5974H105.711V77.1605H107.182C108.811 77.1562 109.624 76.5482 109.62 75.3366Z" fill="black"/>
<path d="M135.297 75.0044C135.317 75.6938 135.117 76.3718 134.726 76.9407C134.335 77.5096 133.773 77.9401 133.121 78.1702C133.939 78.4351 134.663 78.9306 135.205 79.5967C135.663 80.2546 135.893 81.0439 135.859 81.844C135.859 84.8274 133.613 86.319 129.121 86.319H122.004V83.7135H123.906V73.5909H122.004V70.9854H129.147C131.225 70.9854 132.77 71.3176 133.781 71.982C134.277 72.3094 134.678 72.7609 134.944 73.2913C135.21 73.8217 135.332 74.4124 135.297 75.0044ZM131.304 75.2063C131.328 74.9563 131.279 74.7046 131.163 74.4815C131.047 74.2585 130.869 74.0736 130.65 73.9492C130.082 73.68 129.455 73.5568 128.827 73.5909H127.886V77.0823H129.121C129.697 77.1271 130.271 76.9805 130.755 76.6655C130.956 76.4832 131.111 76.2557 131.206 76.002C131.302 75.7483 131.335 75.4755 131.304 75.2063ZM131.781 81.7202C131.808 81.4205 131.763 81.1186 131.65 80.8398C131.536 80.561 131.357 80.3134 131.127 80.1178C130.452 79.7315 129.674 79.561 128.899 79.6293H127.886V83.707H129.461C130.06 83.7363 130.652 83.5693 131.147 83.2315C131.365 83.0493 131.537 82.8176 131.647 82.5559C131.758 82.2941 131.803 82.0098 131.781 81.7267V81.7202Z" fill="black"/>
<path d="M138.185 78.6066C138.153 77.1639 138.524 75.7408 139.257 74.4963C139.977 73.305 141.022 72.3424 142.27 71.7214C143.669 71.0693 145.195 70.7313 146.74 70.7313C148.285 70.7313 149.811 71.0693 151.21 71.7214C152.458 72.3431 153.502 73.3084 154.216 74.5028C154.915 75.7632 155.281 77.1797 155.281 78.6196C155.281 80.0596 154.915 81.476 154.216 82.7364C153.501 83.9308 152.455 84.8942 151.204 85.5113C149.817 86.1635 148.303 86.5017 146.769 86.5017C145.236 86.5017 143.722 86.1635 142.335 85.5113C141.073 84.8955 140.014 83.9326 139.283 82.7364C138.537 81.4892 138.157 80.0584 138.185 78.6066ZM150.995 78.6066C151.006 77.7334 150.833 76.8676 150.485 76.0662C150.168 75.3359 149.657 74.7054 149.008 74.2423C148.337 73.8045 147.552 73.5714 146.75 73.5714C145.948 73.5714 145.163 73.8045 144.492 74.2423C143.844 74.7073 143.334 75.3372 143.015 76.0662C142.665 76.8672 142.489 77.7329 142.499 78.6066C142.487 79.5028 142.667 80.3912 143.028 81.2121C143.342 81.9496 143.856 82.5855 144.512 83.0491C145.164 83.4906 145.938 83.7183 146.727 83.7005C147.532 83.7206 148.324 83.4932 148.995 83.0491C149.657 82.5914 150.175 81.9539 150.485 81.2121C150.835 80.3817 151.009 79.4878 150.995 78.587V78.6066Z" fill="black"/>
<path d="M160.157 73.5909L162.654 80.9451L165.006 73.5909H163.588V70.9854H169.143V73.5909H167.725L170.248 80.9451L172.679 73.5909H171.104V70.9854H177.28V73.5909H175.613L171.345 86.3972H168.49L166.065 79.4013L163.784 86.3972H160.837L156.445 73.5909H154.811V70.9854H161.752V73.5909H160.157Z" fill="black"/>
<path d="M183.913 73.5909V83.7135H188.455V78.9844H191.468V86.319H177.704V83.7135H179.9V73.5909H177.704V70.9854H186.167V73.5909H183.913Z" fill="black"/>
<defs>
<linearGradient id="paint0_linear_2326_1343" x1="44.6979" y1="33.3025" x2="138.963" y2="33.3025" gradientUnits="userSpaceOnUse">
<stop offset="0.2" stop-color="#6933FF"/>
<stop offset="1" stop-color="#1BF8EC"/>
</linearGradient>
</defs>
</svg>
